# xmcd
#
# Track frame offsets:
#	150
#	20932
#	33185
#	48090
#	69580
#	87852
#	108125
#	125933
#	149815
#	175808
#	194890
#	227758
#
# Disc length: 3200 seconds
#
# Revision: 0
# Processed by: cddbd v1.5.2PL0 Copyright (c) Steve Scherf et al.
# Submitted via: dBpowerAMP V4.0
#
DISCID=b10c7e0c
DTITLE=R.L. Burnside - Burnside on Burnside
DYEAR=2001
DGENRE=Blues
TTITLE0=Shake em on down
TTITLE1=Skinny woman
TTITLE2=Miss Maybelle
TTITLE3=Rollin and tumblin
TTITLE4=Long haired doney
TTITLE5=Walkin Blues
TTITLE6=He ain't your daddy
TTITLE7=Bad luck and trouble
TTITLE8=Jumper on the line
TTITLE9=Goin' down south
TTITLE10=Alice May
TTITLE11=Snake drive
EXTD=
EXTT0=
EXTT1=
EXTT2=
EXTT3=
EXTT4=
EXTT5=
EXTT6=
EXTT7=
EXTT8=
EXTT9=
EXTT10=
EXTT11=
PLAYORDER=
